<?xml version="1.0" encoding="UTF-8"?>
<svg width="120px" height="120px" viewBox="0 0 120 120" version="1.1" xmlns="http://www.w3.org/2000/svg" xmlns:xlink="http://www.w3.org/1999/xlink">
    <!-- Generator: Sketch 49.2 (51160) - http://www.bohemiancoding.com/sketch -->
    <title>Artboard Copy 5</title>
    <desc>Created with Sketch.</desc>
    <defs>
        <circle id="path-1" cx="60" cy="60" r="60"></circle>
    </defs>
    <g id="Artboard-Copy-5" stroke="none" stroke-width="1" fill="none" fill-rule="evenodd">
        <g id="avatar">
            <g>
                <g id="Rectangle-7">
                    <mask id="mask-2" fill="white">
                        <use xlink:href="#path-1"></use>
                    </mask>
                    <use id="Mask" fill="#E94D65" xlink:href="#path-1"></use>
                    <rect fill-opacity="0.05" fill="#000000" mask="url(#mask-2)" x="59.2941176" y="-2.82352941" width="67.7647059" height="127.058824"></rect>
                </g>
                <g id="Robot-agora" transform="translate(19.199998, 14.117647)" fill-rule="nonzero">
                    <rect id="Rectangle-path" fill="#EDEDED" x="39.3492901" y="3.16657504" width="1.64543611" height="22.7360088"></rect>
                    <path d="M51.5634888,82.9642661 L28.7805274,82.9642661 C13.0223124,82.9642661 0.301825558,70.2346344 0.301825558,54.4650907 C0.301825558,38.695547 13.0223124,25.9659153 28.7805274,25.9659153 L51.5634888,25.9659153 C67.3217039,25.9659153 80.0421907,38.695547 80.0421907,54.4650907 C80.0421907,70.2346344 67.3217039,82.9642661 51.5634888,82.9642661 Z" id="Shape" fill="#EDEDED"></path>
                    <path d="M40.1720081,25.9659153 L51.5634888,25.9659153 C67.3217039,25.9659153 80.0421907,38.695547 80.0421907,54.4650907 C80.0421907,70.2346344 67.3217039,82.9642661 51.5634888,82.9642661 L40.1720081,82.9642661" id="Shape" fill="#DADADA"></path>
                    <path d="M51.5634888,77.264431 L28.7805274,77.264431 C16.1866126,77.264431 5.99756592,67.0680594 5.99756592,54.4650907 C5.99756592,41.862122 16.1866126,31.6657504 28.7805274,31.6657504 L51.5634888,31.6657504 C64.1574037,31.6657504 74.3464503,41.862122 74.3464503,54.4650907 C74.3464503,67.0680594 64.1574037,77.264431 51.5634888,77.264431 Z" id="Shape" fill="#0274E4"></path>
                    <path d="M28.7805274,82.9642661 C31.9448276,82.9642661 34.4762677,80.431006 34.4762677,77.264431 L28.7805274,77.264431 L28.7805274,82.9642661 Z" id="Shape" fill="#0274E4"></path>
                    <path d="M40.1720081,31.6657504 L51.5634888,31.6657504 C64.1574037,31.6657504 74.3464503,41.862122 74.3464503,54.4650907 C74.3464503,67.0680594 64.1574037,77.264431 51.5634888,77.264431 L40.1720081,77.264431" id="Shape" fill="#1961AC"></path>
                    <ellipse id="Oval" fill="#DADADA" cx="57.2592292" cy="48.7652556" rx="5.69574037" ry="5.69983507"></ellipse>
                    <ellipse id="Oval" fill="#F2F2F2" cx="23.084787" cy="48.7652556" rx="5.69574037" ry="5.69983507"></ellipse>
                    <path d="M45.8677485,56.9983507 C45.8677485,60.1649258 43.3363083,62.6981858 40.1720081,62.6981858 C37.0077079,62.6981858 34.4762677,60.1649258 34.4762677,56.9983507" id="Shape" fill="#F6F6F6"></path>
                    <path d="M25.4263692,31.9824079 C25.4263692,31.9824079 40.2985801,33.2490379 40.2985801,49.2085761 L40.2985801,31.7924134 L25.4263692,31.9824079 Z" id="Shape" fill="#1961AC"></path>
                    <rect id="Rectangle-path" fill="#DADADA" x="34.4762677" y="20.2660803" width="11.3914807" height="5.69983507"></rect>
                    <ellipse id="Oval" fill="#0274E4" cx="40.1720081" cy="3.41990104" rx="3.03772819" ry="3.03991204"></ellipse>
                    <path d="M40.1720081,0.379989005 C41.8174442,0.379989005 43.2097363,1.70995052 43.2097363,3.41990104 C43.2097363,5.12985157 41.8807302,6.45981308 40.1720081,6.45981308" id="Shape" fill="#1961AC"></path>
                </g>
            </g>
        </g>
    </g>
</svg>