<?xml version="1.0" encoding="utf-8"?>
<!-- Generator: Adobe Illustrator 22.0.1, SVG Export Plug-In . SVG Version: 6.00 Build 0)  -->
<svg version="1.1" id="Layer_1" xmlns="http://www.w3.org/2000/svg" xmlns:xlink="http://www.w3.org/1999/xlink" x="0px" y="0px"
	 viewBox="0 0 100 125" style="enable-background:new 0 0 100 125;" xml:space="preserve">
<style type="text/css">
	.st0{fill:#FF4C64;}
	.st1{fill:#FFFFFF;}
</style>
<path class="st0" d="M75,47.6c0-0.1,0-0.2,0-0.2c0-13.8-11.2-25-25-25s-25,11.2-25,25c0,0-1.1,21.1,17.9,39.1
	c-5.7,1-9.5,3.1-9.5,5.6c0,3.5,7.3,6.2,16.6,6.2s16.6-2.7,16.6-6.2c0-2.5-3.8-4.6-9.5-5.6C75,69.6,75.1,49.9,75,47.6z M65.7,92.1
	c0,2.6-6.3,5.3-15.7,5.3s-15.7-2.8-15.7-5.3c0-1.9,3.6-4,9.4-4.9c1.9,1.7,4,3.4,6.3,5.1l0,0c0,0,0,0,0,0s0,0,0,0l0,0
	c2.3-1.6,4.4-3.4,6.3-5.1C62.1,88.1,65.7,90.2,65.7,92.1z"/>
<g id="Appli-mobile">
	<g id="Artboard" transform="translate(-94.000000, -75.000000)">
		<g id="Group" transform="translate(94.000000, 75.000000)">
			<path id="Fill-12" class="st1" d="M44.5,39.2l7.3-7.5l4.5,4.7L42.6,50.5c-0.5,0.6-0.5,1.1,0,1.6l1.4,1.5l-3.9,4l-4.3-4.4
				c-1.6-1.7-1.8-3.2-0.2-4.8l1.1-1.1L44.5,39.2z"/>
			<path id="Fill-15" class="st1" d="M55.5,58.5L48.2,66l-4.5-4.7l13.6-14.1c0.5-0.6,0.5-1.1,0-1.6l-1.4-1.5l3.9-4l4.3,4.4
				c1.6,1.7,1.8,3.2,0.2,4.8l-1.1,1.1L55.5,58.5z"/>
		</g>
	</g>
</g>
</svg>
